<svg width="57" height="59" viewBox="0 0 57 59" fill="none" xmlns="http://www.w3.org/2000/svg">
<path d="M51.1673 14.1509L29.9043 1.33682C29.5522 1.10635 29.0679 1.01416 28.5396 1.01416C28.0114 1.01416 27.5271 1.15244 27.1749 1.33682L6.04407 14.197C5.29568 14.6579 4.76741 15.8103 4.76741 16.686V42.3603C4.76741 42.8673 4.85546 43.4665 5.20764 43.9735L52.2238 15.3954C51.9597 14.8423 51.5635 14.4274 51.1673 14.1509Z" fill="#9B4F96"/>
<path d="M5.07556 43.9272C5.29567 44.296 5.60383 44.6187 5.91199 44.803L27.1309 57.6632C27.4831 57.8937 27.9673 57.9858 28.4956 57.9858C29.0239 57.9858 29.5081 57.8476 29.8603 57.6632L50.9912 44.803C51.7396 44.3421 52.2678 43.1897 52.2678 42.314V16.6397C52.2678 16.2249 52.2238 15.764 52.0037 15.3491L5.07556 43.9272Z" fill="#68217A"/>
<path d="M37.9165 35.0773C36.0675 38.4883 32.5457 40.793 28.5396 40.793C22.5966 40.793 17.7541 35.7227 17.7541 29.5C17.7541 23.2773 22.5966 18.207 28.5396 18.207C32.5457 18.207 36.0675 20.5117 37.9165 23.9688L43.6394 20.5117C40.6459 15.0266 35.011 11.293 28.5396 11.293C18.9427 11.293 11.1507 19.4516 11.1507 29.5C11.1507 39.5484 18.9427 47.707 28.5396 47.707C34.9669 47.707 40.6018 44.0195 43.5954 38.5805L37.9165 35.0773ZM43.0671 30.5141L43.4633 28.532H41.6144V26.3656H43.8595L44.3878 23.5078H46.5449L46.0166 26.3195H47.6895L48.2178 23.5078H50.3308L49.8026 26.3195H50.8591V28.4859H49.4064L49.0102 30.468H50.8591V32.6344H48.614L48.0857 35.4H45.9286L46.4569 32.6344H44.784L44.2557 35.4H42.1426L42.6709 32.6344H41.6144V30.468H43.0671V30.5141ZM45.1802 30.5141H46.8531L47.2493 28.532H45.5764L45.1802 30.5141Z" fill="#F7F7F8"/>
</svg>
