<svg width="61" height="61" viewBox="0 0 61 61" fill="none" xmlns="http://www.w3.org/2000/svg">
<path d="M9.27909 54.387L4.53691 0.644531H56.6471L51.9002 54.3789L30.5604 60.3564L9.27909 54.387Z" fill="#1572B6"/>
<path d="M30.5925 55.7872L47.8363 50.9568L51.8932 5.03809H30.5925V55.7872Z" fill="#33A9DC"/>
<path d="M30.5925 24.5093H39.225L39.8212 17.7598H30.5925V11.1685H46.951L46.7944 12.937L45.1907 31.1007H30.5925V24.5093Z" fill="#F7F7F8"/>
<path d="M30.6312 41.6274L30.6024 41.636L23.3372 39.6539L22.8726 34.397H16.3249L17.2385 44.7465L30.6014 48.4937L30.6312 48.4851V41.6274Z" fill="#EBEBEB"/>
<path d="M38.6703 30.8218L37.8845 39.6487L30.6085 41.6331V48.4908L43.9823 44.746L44.0804 43.6323L45.2152 30.8218H38.6703Z" fill="#F7F7F8"/>
<path d="M30.6147 11.1685V17.7598H14.8571L14.7264 16.2786L14.4293 12.937L14.2731 11.1685H30.6147ZM30.5925 24.5103V31.1016H23.4188L23.2882 29.6205L22.9906 26.2788L22.8349 24.5103H30.5925Z" fill="#EBEBEB"/>
</svg>
