<svg width="192" height="260" viewBox="0 0 192 260" fill="none" xmlns="http://www.w3.org/2000/svg">
<mask id="mask0_238_316" style="mask-type:alpha" maskUnits="userSpaceOnUse" x="0" y="0" width="192" height="260">
<rect x="0.5" y="0.5" width="190.631" height="259" rx="14.5" fill="white" stroke="white"/>
</mask>
<g mask="url(#mask0_238_316)">
<rect x="0.5" y="-2.41309" width="203.847" height="265.638" fill="#D9D9D9" stroke="#F7F7F8"/>
<path d="M95.2522 -21.5411L187.839 -15.9018C189.809 -9.23532 193.4 -1.81495 197.336 5.84346C198.221 7.56608 199.124 9.30088 200.031 11.0428C203.232 17.1932 206.479 23.4324 209.163 29.5377C212.608 37.3742 215.098 44.9318 215.372 51.7242C215.644 58.4914 213.718 64.4834 208.329 69.2611C206.43 70.945 204.482 72.6912 202.484 74.4821C182.943 91.9975 158.633 113.788 128.827 123.333C112.377 128.601 81.2631 135.151 49.5807 139.606C17.9238 144.059 -14.2094 146.406 -32.8232 143.33C-39.244 140.192 -42.1456 135.596 -43.0439 130.038C-43.9531 124.412 -42.8135 117.779 -41.0642 110.624C-40.4657 108.177 -39.7952 105.666 -39.1153 103.12C-37.8189 98.2654 -36.4883 93.2831 -35.5585 88.3678C-34.1425 80.8823 -33.6312 73.4479 -35.5744 66.6525L-37.7624 -21.0213L95.2522 -21.5411Z" fill="url(#paint0_linear_238_316)" stroke="#F7F7F8"/>
</g>
<defs>
<linearGradient id="paint0_linear_238_316" x1="143.621" y1="21.3912" x2="15.9135" y2="148.238" gradientUnits="userSpaceOnUse">
<stop stop-color="#B00B00"/>
<stop offset="0.75" stop-color="#E46414"/>
<stop offset="1" stop-color="#BFA727"/>
</linearGradient>
</defs>
</svg>
