<svg width="68" height="67" viewBox="0 0 68 67" fill="none" xmlns="http://www.w3.org/2000/svg">
<path d="M12.8207 56.9521L8.08673 4.1875H60.1036L55.3633 56.9437L34.0635 62.8125L12.8207 56.9521Z" fill="#E44F26"/>
<path d="M34.0952 58.3279L51.3077 53.5856L55.357 8.50293H34.0952V58.3279Z" fill="#F1662A"/>
<path d="M34.0951 28.0707H25.4783L24.8842 21.4439H34.0951V14.9722H17.7675L17.9234 16.71L19.5224 34.5424H34.0951V28.0707ZM34.0951 44.8772L34.0656 44.8856L26.814 42.9405L26.3506 37.7794H19.8132L20.7254 47.9383L34.0656 51.6191L34.0951 51.6107V44.8772Z" fill="#EBEBEB"/>
<path d="M34.072 28.0707V34.5424H42.0904L41.3362 42.9363L34.072 44.8835V51.617L47.4227 47.9383L47.5196 46.8453L49.0492 29.8085L49.2093 28.0707H34.072ZM34.072 14.9722V21.4439H49.8013L49.9319 19.9909L50.229 16.71L50.3849 14.9722H34.072Z" fill="#F7F7F8"/>
</svg>
