<svg width="60" height="64" viewBox="0 0 60 64" fill="none" xmlns="http://www.w3.org/2000/svg">
<g clip-path="url(#clip0_254_320)">
<path d="M22.484 49.1203C22.484 49.1203 20.2731 50.4887 24.0596 50.9504C28.6476 51.5078 30.9922 51.4279 36.0468 50.4117C36.0468 50.4117 37.3784 51.2972 39.2345 52.0648C27.8995 57.2296 13.5821 51.7653 22.484 49.1203ZM21.0982 42.3794C21.0982 42.3794 18.6177 44.3324 22.4075 44.7497C27.3086 45.2879 31.1782 45.3318 37.8774 43.9604C37.8774 43.9604 38.8018 44.9593 40.2577 45.5049C26.5558 49.767 11.2946 45.8404 21.0982 42.3794Z" fill="#0074BD"/>
<path d="M32.7737 30.9429C35.5681 34.3639 32.0408 37.4396 32.0408 37.4396C32.0408 37.4396 39.132 33.547 35.8761 28.6703C32.8339 24.1246 30.5019 21.8668 43.1277 14.0786C43.1277 14.0791 23.3087 19.3421 32.7737 30.9429Z" fill="#EA2D2E"/>
<path d="M47.7645 54.107C47.7645 54.107 49.4013 55.5425 45.9612 56.6519C39.4205 58.7593 18.7327 59.3946 12.9871 56.7363C10.9227 55.7803 14.7955 54.4548 16.0139 54.1751C17.2843 53.8825 18.0097 53.9358 18.0097 53.9358C15.7124 52.2157 3.16172 57.3149 11.6355 58.7775C34.743 62.7614 53.7574 56.9834 47.7645 54.107ZM23.5485 35.3938C23.5485 35.3938 13.0265 38.0522 19.8227 39.0186C22.6928 39.427 28.4115 39.3333 33.7421 38.8577C38.0973 38.4685 42.4678 37.6373 42.4678 37.6373C42.4678 37.6373 40.9335 38.3373 39.8222 39.1434C29.1351 42.1332 8.49461 40.7406 14.4374 37.6842C19.4614 35.0998 23.5485 35.3938 23.5485 35.3938ZM42.4242 46.6148C53.2871 40.6129 48.264 34.8448 44.7581 35.6217C43.9009 35.8116 43.5164 35.9769 43.5164 35.9769C43.5164 35.9769 43.8355 35.4446 44.444 35.2157C51.3794 32.6235 56.7123 42.8633 42.2071 46.9192C42.2071 46.9182 42.3736 46.7579 42.4242 46.6148Z" fill="#0074BD"/>
<path d="M35.8761 1.50098C35.8761 1.50098 41.8908 7.90198 30.1699 17.7418C20.7703 25.6374 28.0266 30.1383 30.1666 35.2829C24.6793 30.0179 20.6543 25.3824 23.3542 21.0685C27.3188 14.7376 38.3023 11.6668 35.8761 1.50098Z" fill="#EA2D2E"/>
<path d="M24.6162 62.884C35.0408 63.5929 51.0534 62.4894 51.4323 57.2427C51.4323 57.2427 50.7036 59.2316 42.8161 60.8097C33.9174 62.5915 22.94 62.3838 16.4313 61.2408C16.4313 61.2413 17.7648 62.4154 24.6162 62.884Z" fill="#0074BD"/>
</g>
<defs>
<clipPath id="clip0_254_320">
<rect width="59.3677" height="63.1419" fill="white" transform="translate(0.398804 0.718262)"/>
</clipPath>
</defs>
</svg>
