<svg width="17" height="17" viewBox="0 0 17 17" fill="none" xmlns="http://www.w3.org/2000/svg">
<path d="M3.52664 2.21069C3.65457 2.10956 3.75295 1.97686 3.80931 1.82944C3.86567 1.68201 3.87748 1.5265 3.84323 1.38262C3.80897 1.23874 3.73021 1.11298 3.61692 1.02128C3.50364 0.929587 3.36093 0.87609 3.2069 0.867578C3.05288 0.859066 2.89447 0.895921 2.75178 0.973469C2.60909 1.05102 2.48853 1.16577 2.40541 1.30316C2.32228 1.44055 2.28034 1.5944 2.28488 1.74519C2.28943 1.89598 2.34027 2.03692 2.43095 2.15014C2.55179 2.30101 2.7348 2.39204 2.94005 2.40338C3.14531 2.41473 3.35617 2.34546 3.52664 2.21069ZM12.9233 1.23784C12.4403 1.81854 12.0149 2.43981 11.6538 3.09175C11.2218 3.89785 10.8768 4.73781 10.6249 5.59662C9.86423 5.47823 9.12854 5.27766 8.43079 4.99845C7.26849 4.49174 6.15495 3.89941 5.0988 3.22605C4.99911 3.16242 4.87659 3.13557 4.75056 3.14976C4.62453 3.16394 4.50214 3.21835 4.40272 3.30439C4.29704 3.38264 4.21724 3.49019 4.17588 3.61009C4.13452 3.72998 4.13397 3.85541 4.17431 3.96658C4.60202 5.1438 4.937 6.35987 5.17659 7.60512C5.29759 8.34534 5.33163 9.10591 5.27806 9.87278C4.38595 9.93775 3.4926 10.0924 2.61229 10.3342C1.91283 10.5373 1.22791 10.8056 0.567549 11.135C0.469626 11.1842 0.384659 11.2575 0.322201 11.3469C0.259742 11.4363 0.222268 11.5381 0.213991 11.641C0.206299 11.7466 0.229741 11.8487 0.281543 11.9352C0.333346 12.0217 0.411341 12.089 0.506304 12.1291C2.80347 13.2007 4.91859 14.5681 6.80152 16.1988C6.89756 16.2803 7.02444 16.3222 7.1593 16.3169C7.29416 16.3116 7.42815 16.2594 7.53713 16.1698L16.3198 9.1347C16.431 9.04791 16.5112 8.92855 16.5458 8.7981C16.5804 8.66765 16.5673 8.53469 16.5086 8.42317C15.3284 6.22967 14.4557 3.86707 13.9114 1.39137C13.893 1.28993 13.8443 1.19913 13.7712 1.1297C13.6981 1.06026 13.6036 1.0151 13.4989 0.999555C13.3957 0.984757 13.287 0.999261 13.1852 1.04141C13.0834 1.08355 12.9927 1.15163 12.9233 1.23784ZM7.52464 13.9658C7.42362 14.0481 7.30308 14.1018 7.17833 14.1202C7.05357 14.1387 6.93023 14.1209 6.82394 14.0693C6.71766 14.0176 6.63323 13.9344 6.58137 13.8302C6.52951 13.7259 6.51256 13.6054 6.53267 13.4838C6.55278 13.3622 6.60905 13.2451 6.69433 13.1474C6.77961 13.0496 6.89006 12.9756 7.01165 12.9347C7.13325 12.8938 7.26051 12.8879 7.37728 12.9177C7.49406 12.9475 7.59508 13.0117 7.66753 13.1021C7.76392 13.2225 7.80299 13.3807 7.77623 13.5425C7.74947 13.7042 7.65905 13.8564 7.52464 13.9658ZM10.8297 11.3184C10.694 11.4094 10.5339 11.4515 10.3807 11.4362C10.2275 11.421 10.0923 11.3497 10.0013 11.2361C9.91035 11.1226 9.87025 10.975 9.88883 10.8222C9.90742 10.6693 9.98336 10.5223 10.1018 10.4097C10.2375 10.3187 10.3976 10.2767 10.5508 10.2919C10.704 10.3071 10.8392 10.3785 10.9302 10.492C11.0212 10.6056 11.0613 10.7532 11.0427 10.906C11.0241 11.0588 10.9481 11.2059 10.8297 11.3184ZM14.1394 8.66731C14.0383 8.74957 13.9178 8.80331 13.793 8.82174C13.6683 8.84016 13.5449 8.82242 13.4387 8.77078C13.3324 8.71913 13.2479 8.63591 13.1961 8.53167C13.1442 8.42743 13.1273 8.30688 13.1474 8.18531C13.1675 8.06374 13.2238 7.94664 13.309 7.84887C13.3943 7.7511 13.5048 7.67707 13.6264 7.63617C13.748 7.59528 13.8752 7.58936 13.992 7.61917C14.1088 7.64899 14.2098 7.71319 14.2822 7.80362C14.3786 7.92395 14.4177 8.08221 14.3909 8.24396C14.3642 8.40571 14.2738 8.55787 14.1394 8.66731Z" fill="#F7F7F8"/>
</svg>
