<svg width="1280" height="240" viewBox="0 0 1280 240" fill="none" xmlns="http://www.w3.org/2000/svg">
<path d="M1280 139L1237.2 142.975C1194.4 147.25 1108.8 154.75 1023.2 171.025C937.6 187 852 211 766.4 207.025C680.8 202.75 595.2 171.25 509.6 166.975C424 163 338.4 187 252.8 199C167.2 211 81.6 211 38.8 211L-4 211V19L38.8 19C81.6 19 167.2 19 252.8 19C338.4 19 424 19 509.6 19C595.2 19 680.8 19 766.4 19C852 19 937.6 19 1023.2 19C1108.8 19 1194.4 19 1237.2 19H1280V139Z" fill="#6D6D6D"/>
<path d="M1280 120L1237.2 123.975C1194.4 128.25 1108.8 135.75 1023.2 152.025C937.6 168 852 192 766.4 188.025C680.8 183.75 595.2 152.25 509.6 147.975C424 144 338.4 168 252.8 180C167.2 192 81.6 192 38.8 192L-4 192V0L38.8 0C81.6 0 167.2 0 252.8 0C338.4 0 424 0 509.6 0C595.2 0 680.8 0 766.4 0C852 0 937.6 0 1023.2 0C1108.8 0 1194.4 0 1237.2 0H1280V120Z" fill="#272727"/>
</svg>
