<svg width="516" height="68" viewBox="0 0 516 68" fill="none" xmlns="http://www.w3.org/2000/svg">
<line y1="-2.5" x2="499.002" y2="-2.5" transform="matrix(1 0.000788325 -0.00151034 0.999999 -16.9761 37.7363)" stroke="#272727" stroke-width="5"/>
<mask id="path-2-outside-1_116_403" maskUnits="userSpaceOnUse" x="475.004" y="28.4478" width="14.0636" height="15.0594" fill="black">
<rect fill="white" x="475.004" y="28.4478" width="14.0636" height="15.0594"/>
<path d="M487.524 36.3308C487.517 38.1042 486.974 39.5719 485.896 40.734C484.771 41.8492 483.392 42.4033 481.759 42.3964C480.125 42.3894 478.774 41.8237 477.706 40.6991C476.591 39.5277 476.037 38.0554 476.045 36.282C476.052 34.5554 476.618 33.1345 477.743 32.0192C478.821 30.9038 480.176 30.3496 481.81 30.3565C483.443 30.3634 484.817 30.9293 485.933 32.054C487.001 33.1786 487.532 34.6042 487.524 36.3308Z"/>
</mask>
<path d="M487.524 36.3308C487.517 38.1042 486.974 39.5719 485.896 40.734C484.771 41.8492 483.392 42.4033 481.759 42.3964C480.125 42.3894 478.774 41.8237 477.706 40.6991C476.591 39.5277 476.037 38.0554 476.045 36.282C476.052 34.5554 476.618 33.1345 477.743 32.0192C478.821 30.9038 480.176 30.3496 481.81 30.3565C483.443 30.3634 484.817 30.9293 485.933 32.054C487.001 33.1786 487.532 34.6042 487.524 36.3308Z" fill="#272727"/>
<path d="M485.896 40.734L486.6 41.4441L486.615 41.4294L486.629 41.4141L485.896 40.734ZM477.706 40.6991L478.431 40.0103L478.43 40.0097L477.706 40.6991ZM477.743 32.0192L478.447 32.7293L478.454 32.7218L478.462 32.7142L477.743 32.0192ZM485.933 32.054L486.657 31.3652L486.65 31.3575L486.643 31.3499L485.933 32.054ZM486.524 36.3266C486.518 37.8812 486.05 39.0978 485.163 40.0538L486.629 41.4141C487.898 40.0459 488.516 38.3271 488.524 36.3351L486.524 36.3266ZM485.192 40.0239C484.262 40.9459 483.14 41.4023 481.763 41.3964L481.754 43.3964C483.644 43.4044 485.28 42.7524 486.6 41.4441L485.192 40.0239ZM481.763 41.3964C480.386 41.3905 479.301 40.9259 478.431 40.0103L476.981 41.388C478.248 42.7215 479.865 43.3883 481.754 43.3964L481.763 41.3964ZM478.43 40.0097C477.511 39.0441 477.038 37.8287 477.045 36.2863L475.045 36.2778C475.036 38.282 475.67 40.0114 476.981 41.3886L478.43 40.0097ZM477.045 36.2863C477.051 34.7985 477.528 33.6401 478.447 32.7293L477.039 31.3091C475.708 32.6288 475.053 34.3123 475.045 36.2778L477.045 36.2863ZM478.462 32.7142C479.339 31.8061 480.429 31.3506 481.805 31.3565L481.814 29.3565C479.924 29.3485 478.302 30.0015 477.024 31.3243L478.462 32.7142ZM481.805 31.3565C483.183 31.3623 484.3 31.8282 485.222 32.7581L486.643 31.3499C485.334 30.0304 483.703 29.3645 481.814 29.3565L481.805 31.3565ZM485.208 32.7429C486.078 33.6587 486.531 34.8261 486.524 36.3266L488.524 36.3351C488.533 34.3823 487.924 32.6985 486.657 31.3652L485.208 32.7429Z" fill="#272727" mask="url(#path-2-outside-1_116_403)"/>
<line y1="-2.5" x2="499.002" y2="-2.5" transform="matrix(1 0.000788325 -0.00151034 0.999999 -68.9761 15.7363)" stroke="#272727" stroke-width="5"/>
<mask id="path-5-outside-2_116_403" maskUnits="userSpaceOnUse" x="423.004" y="6.44782" width="14.0636" height="15.0594" fill="black">
<rect fill="white" x="423.004" y="6.44782" width="14.0636" height="15.0594"/>
<path d="M435.524 14.3308C435.517 16.1042 434.974 17.5719 433.896 18.734C432.771 19.8492 431.392 20.4033 429.759 20.3964C428.125 20.3894 426.774 19.8237 425.706 18.6991C424.591 17.5277 424.037 16.0554 424.045 14.282C424.052 12.5554 424.618 11.1345 425.743 10.0192C426.821 8.9038 428.176 8.34956 429.81 8.3565C431.443 8.36344 432.817 8.92929 433.933 10.054C435.001 11.1786 435.532 12.6042 435.524 14.3308Z"/>
</mask>
<path d="M435.524 14.3308C435.517 16.1042 434.974 17.5719 433.896 18.734C432.771 19.8492 431.392 20.4033 429.759 20.3964C428.125 20.3894 426.774 19.8237 425.706 18.6991C424.591 17.5277 424.037 16.0554 424.045 14.282C424.052 12.5554 424.618 11.1345 425.743 10.0192C426.821 8.9038 428.176 8.34956 429.81 8.3565C431.443 8.36344 432.817 8.92929 433.933 10.054C435.001 11.1786 435.532 12.6042 435.524 14.3308Z" fill="#272727"/>
<path d="M433.896 18.734L434.6 19.4441L434.615 19.4294L434.629 19.4141L433.896 18.734ZM425.706 18.6991L426.431 18.0103L426.43 18.0097L425.706 18.6991ZM425.743 10.0192L426.447 10.7293L426.454 10.7218L426.462 10.7142L425.743 10.0192ZM433.933 10.054L434.657 9.36521L434.65 9.3575L434.643 9.34994L433.933 10.054ZM434.524 14.3266C434.518 15.8812 434.05 17.0978 433.163 18.0538L434.629 19.4141C435.898 18.0459 436.516 16.3271 436.524 14.3351L434.524 14.3266ZM433.192 18.0239C432.262 18.9459 431.14 19.4023 429.763 19.3964L429.754 21.3964C431.644 21.4044 433.28 20.7524 434.6 19.4441L433.192 18.0239ZM429.763 19.3964C428.386 19.3905 427.301 18.9259 426.431 18.0103L424.981 19.388C426.248 20.7215 427.865 21.3883 429.754 21.3964L429.763 19.3964ZM426.43 18.0097C425.511 17.0441 425.038 15.8287 425.044 14.2863L423.045 14.2778C423.036 16.282 423.67 18.0114 424.981 19.3886L426.43 18.0097ZM425.044 14.2863C425.051 12.7985 425.528 11.6401 426.447 10.7293L425.039 9.30912C423.708 10.6288 423.053 12.3123 423.045 14.2778L425.044 14.2863ZM426.462 10.7142C427.339 9.80609 428.429 9.35064 429.805 9.35649L429.814 7.35651C427.924 7.34847 426.302 8.00151 425.024 9.32426L426.462 10.7142ZM429.805 9.35649C431.183 9.36234 432.3 9.82818 433.222 10.7581L434.643 9.34994C433.334 8.03039 431.703 7.36454 429.814 7.35651L429.805 9.35649ZM433.208 10.7429C434.078 11.6587 434.531 12.8261 434.524 14.3266L436.524 14.3351C436.533 12.3823 435.924 10.6985 434.657 9.36521L433.208 10.7429Z" fill="#272727" mask="url(#path-5-outside-2_116_403)"/>
<line y1="-2.5" x2="499.002" y2="-2.5" transform="matrix(1 0.000788325 -0.00151034 0.999999 -49.9761 59.7363)" stroke="#272727" stroke-width="5"/>
<mask id="path-8-outside-3_116_403" maskUnits="userSpaceOnUse" x="442.004" y="50.4478" width="14.0636" height="15.0594" fill="black">
<rect fill="white" x="442.004" y="50.4478" width="14.0636" height="15.0594"/>
<path d="M454.524 58.3308C454.517 60.1042 453.974 61.5719 452.896 62.734C451.771 63.8492 450.392 64.4033 448.759 64.3964C447.125 64.3894 445.774 63.8237 444.706 62.6991C443.591 61.5277 443.037 60.0554 443.045 58.282C443.052 56.5554 443.618 55.1345 444.743 54.0192C445.821 52.9038 447.176 52.3496 448.81 52.3565C450.443 52.3634 451.817 52.9293 452.933 54.054C454.001 55.1786 454.532 56.6042 454.524 58.3308Z"/>
</mask>
<path d="M454.524 58.3308C454.517 60.1042 453.974 61.5719 452.896 62.734C451.771 63.8492 450.392 64.4033 448.759 64.3964C447.125 64.3894 445.774 63.8237 444.706 62.6991C443.591 61.5277 443.037 60.0554 443.045 58.282C443.052 56.5554 443.618 55.1345 444.743 54.0192C445.821 52.9038 447.176 52.3496 448.81 52.3565C450.443 52.3634 451.817 52.9293 452.933 54.054C454.001 55.1786 454.532 56.6042 454.524 58.3308Z" fill="#272727"/>
<path d="M452.896 62.734L453.6 63.4441L453.615 63.4294L453.629 63.4141L452.896 62.734ZM444.706 62.6991L445.431 62.0103L445.43 62.0097L444.706 62.6991ZM444.743 54.0192L445.447 54.7293L445.454 54.7218L445.462 54.7142L444.743 54.0192ZM452.933 54.054L453.657 53.3652L453.65 53.3575L453.643 53.3499L452.933 54.054ZM453.524 58.3266C453.518 59.8812 453.05 61.0978 452.163 62.0538L453.629 63.4141C454.898 62.0459 455.516 60.3271 455.524 58.3351L453.524 58.3266ZM452.192 62.0239C451.262 62.9459 450.14 63.4023 448.763 63.3964L448.754 65.3964C450.644 65.4044 452.28 64.7524 453.6 63.4441L452.192 62.0239ZM448.763 63.3964C447.386 63.3905 446.301 62.9259 445.431 62.0103L443.981 63.388C445.248 64.7215 446.865 65.3883 448.754 65.3964L448.763 63.3964ZM445.43 62.0097C444.511 61.0441 444.038 59.8287 444.044 58.2863L442.045 58.2778C442.036 60.282 442.67 62.0114 443.981 63.3886L445.43 62.0097ZM444.044 58.2863C444.051 56.7985 444.528 55.6401 445.447 54.7293L444.039 53.3091C442.708 54.6288 442.053 56.3123 442.045 58.2778L444.044 58.2863ZM445.462 54.7142C446.339 53.8061 447.429 53.3506 448.805 53.3565L448.814 51.3565C446.924 51.3485 445.302 52.0015 444.024 53.3243L445.462 54.7142ZM448.805 53.3565C450.183 53.3623 451.3 53.8282 452.222 54.7581L453.643 53.3499C452.334 52.0304 450.703 51.3645 448.814 51.3565L448.805 53.3565ZM452.208 54.7429C453.078 55.6587 453.531 56.8261 453.524 58.3266L455.524 58.3351C455.533 56.3823 454.924 54.6985 453.657 53.3652L452.208 54.7429Z" fill="#272727" mask="url(#path-8-outside-3_116_403)"/>
</svg>
