<svg width="100%" height="100%" id="svg" viewBox="0 0 1440 492" xmlns="http://www.w3.org/2000/svg"><path d="M 0,502 C 0,502 0,167 0,167 C 111.54066985645932,152.40669856459328 223.08133971291863,137.8133971291866 312,146 C 400.91866028708137,154.1866028708134 467.21531100478467,185.1531100478469 559,187 C 650.7846889952153,188.8468899521531 768.0574162679426,161.57416267942585 870,165 C 971.9425837320574,168.42583732057415 1058.5550239234449,202.55023923444975 1151,208 C 1243.4449760765551,213.44976076555025 1341.7224880382776,190.22488038277513 1440,167 C 1440,167 1440,502 1440,502 Z" stroke="none" stroke-width="0" fill="rgba(39, 39, 39, 1)" fill-opacity="0.53" class="path-0" style="transition-property: all; transition-timing-function: cubic-bezier(0.4, 0, 0.2, 1); transition-duration: 300ms; transition-delay: 150ms;"></path><path d="M 0,502 C 0,502 0,334 0,334 C 100.27751196172247,307.6267942583732 200.55502392344494,281.2535885167464 296,302 C 391.44497607655506,322.7464114832536 482.0574162679426,390.6124401913875 565,387 C 647.9425837320574,383.3875598086125 723.2153110047847,308.2966507177034 818,280 C 912.7846889952153,251.7033492822966 1027.0813397129186,270.20095693779905 1134,287 C 1240.9186602870814,303.79904306220095 1340.4593301435407,318.8995215311005 1440,334 C 1440,334 1440,502 1440,502 Z" stroke="none" stroke-width="0" fill="rgba(39, 39, 39, 1)" fill-opacity="1" class="path-1" style="transition-property: all; transition-timing-function: cubic-bezier(0.4, 0, 0.2, 1); transition-duration: 300ms; transition-delay: 150ms;"></path></svg>