<?xml version="1.0" standalone="no"?>
<svg xmlns:xlink="http://www.w3.org/1999/xlink" id="wave" style="transform:rotate(180deg); transition: 0.3s" viewBox="0 0 1440 290" version="1.1" xmlns="http://www.w3.org/2000/svg"><defs><linearGradient id="sw-gradient-0" x1="0" x2="0" y1="1" y2="0"><stop stop-color="rgba(39, 39, 39, 1)" offset="0%"/><stop stop-color="rgba(29.513, 29.513, 29.513, 1)" offset="100%"/></linearGradient></defs><path style="transform:translate(0, 0px); opacity:1" fill="url(#sw-gradient-0)" d="M0,203L60,174C120,145,240,87,360,77.3C480,68,600,106,720,106.3C840,106,960,68,1080,67.7C1200,68,1320,106,1440,106.3C1560,106,1680,68,1800,77.3C1920,87,2040,145,2160,178.8C2280,213,2400,222,2520,227.2C2640,232,2760,232,2880,212.7C3000,193,3120,155,3240,120.8C3360,87,3480,58,3600,58C3720,58,3840,87,3960,120.8C4080,155,4200,193,4320,193.3C4440,193,4560,155,4680,149.8C4800,145,4920,174,5040,198.2C5160,222,5280,242,5400,227.2C5520,213,5640,164,5760,125.7C5880,87,6000,58,6120,67.7C6240,77,6360,126,6480,159.5C6600,193,6720,213,6840,203C6960,193,7080,155,7200,145C7320,135,7440,155,7560,135.3C7680,116,7800,58,7920,53.2C8040,48,8160,97,8280,106.3C8400,116,8520,87,8580,72.5L8640,58L8640,290L8580,290C8520,290,8400,290,8280,290C8160,290,8040,290,7920,290C7800,290,7680,290,7560,290C7440,290,7320,290,7200,290C7080,290,6960,290,6840,290C6720,290,6600,290,6480,290C6360,290,6240,290,6120,290C6000,290,5880,290,5760,290C5640,290,5520,290,5400,290C5280,290,5160,290,5040,290C4920,290,4800,290,4680,290C4560,290,4440,290,4320,290C4200,290,4080,290,3960,290C3840,290,3720,290,3600,290C3480,290,3360,290,3240,290C3120,290,3000,290,2880,290C2760,290,2640,290,2520,290C2400,290,2280,290,2160,290C2040,290,1920,290,1800,290C1680,290,1560,290,1440,290C1320,290,1200,290,1080,290C960,290,840,290,720,290C600,290,480,290,360,290C240,290,120,290,60,290L0,290Z"/></svg>